<mxfile host="app.diagrams.net" modified="2023-04-06T15:58:49.296Z" agent="Mozilla/5.0 (Windows NT 6.1) AppleWebKit/537.36 (KHTML, like Gecko) Chrome/105.0.0.0 Safari/537.36" version="21.1.4" etag="2cIGD4CQV9DmDiyPSIdS" type="github">
  <diagram name="PÃ¡gina-1" id="bVDtdopQYyMiAeFxYlLc">
    <mxGraphModel>
      <root>
        <mxCell id="0" />
        <mxCell id="1" parent="0" />
      </root>
    </mxGraphModel>
  </diagram>
</mxfile>
